<?xml version="1.0" encoding="iso-8859-1"?>
<!-- Generator: Adobe Illustrator 19.0.0, SVG Export Plug-In . SVG Version: 6.00 Build 0)  -->
<svg version="1.1" id="Capa_1" xmlns="http://www.w3.org/2000/svg" xmlns:xlink="http://www.w3.org/1999/xlink" x="0px" y="0px"
	 viewBox="0 0 496 496" style="enable-background:new 0 0 496 496;" xml:space="preserve">
<g>
	<path style="fill:#193441;" d="M450.4,389.6L372.8,312H123.2l-77.6,77.6l-11.2-11.2l80-80c1.6-1.6,3.2-2.4,5.6-2.4h256
		c2.4,0,4,0.8,5.6,2.4l80,80L450.4,389.6z"/>
	<path style="fill:#193441;" d="M128,304h-16v-99.2c0-13.6-8.8-26.4-21.6-30.4l-44.8-15.2l4.8-15.2l44.8,15.2
		c19.2,6.4,32.8,24.8,32.8,45.6V304z"/>
	<path style="fill:#193441;" d="M384,304h-16v-99.2c0-20.8,12.8-39.2,32.8-45.6l44.8-15.2l4.8,15.2l-44.8,15.2
		c-12.8,4-21.6,16.8-21.6,30.4L384,304L384,304z"/>
	
		<rect x="87.08" y="215.72" transform="matrix(-0.7071 0.7071 -0.7071 -0.7071 500.0909 240.2947)" style="fill:#193441;" width="226.398" height="16"/>
	
		<rect x="96.8" y="192.002" transform="matrix(-0.7071 0.7071 -0.7071 -0.7071 441.8725 216.9752)" style="fill:#193441;" width="158.398" height="16"/>
	
		<rect x="106.512" y="168.277" transform="matrix(-0.7071 0.7071 -0.7071 -0.7071 383.6346 193.6478)" style="fill:#193441;" width="90.399" height="16"/>
	
		<rect x="97.489" y="151.713" transform="matrix(-0.7071 0.7071 -0.7071 -0.7071 318.2794 187.5907)" style="fill:#193441;" width="45.6" height="16"/>
	
		<rect x="135.085" y="215.707" transform="matrix(-0.7071 0.7071 -0.7071 -0.7071 582.0313 206.3283)" style="fill:#193441;" width="226.398" height="16"/>
	
		<rect x="183.082" y="215.686" transform="matrix(-0.7071 0.7071 -0.7071 -0.7071 663.9521 172.354)" style="fill:#193441;" width="226.398" height="16"/>
	
		<rect x="298.517" y="264.252" transform="matrix(-0.7071 0.7071 -0.7071 -0.7071 779.2715 221.7185)" style="fill:#193441;" width="90.399" height="16"/>
	
		<rect x="240.131" y="238.458" transform="matrix(-0.7071 0.7071 -0.7071 -0.7071 723.5003 193.2325)" style="fill:#193441;" width="163.198" height="16"/>
	
		<rect x="407.713" y="191.317" transform="matrix(-0.7071 0.7071 -0.7071 -0.7071 884.8286 128.9247)" style="fill:#193441;" width="16" height="112.799"/>
	
		<rect x="415.71" y="162.504" transform="matrix(-0.7071 0.7071 -0.7071 -0.7071 870.1867 54.964)" style="fill:#193441;" width="16" height="90.399"/>
	
		<rect x="407.71" y="239.314" transform="matrix(-0.7071 0.7071 -0.7071 -0.7071 918.762 210.8626)" style="fill:#193441;" width="16" height="112.799"/>
	
		<rect x="23.312" y="240.276" transform="matrix(-0.7071 0.7071 -0.7071 -0.7071 311.6335 367.4684)" style="fill:#193441;" width="112.799" height="16"/>
	
		<rect x="26.539" y="200.281" transform="matrix(-0.7071 0.7071 -0.7071 -0.7071 269.7422 304.83)" style="fill:#193441;" width="90.399" height="16"/>
	
		<rect x="23.317" y="288.281" transform="matrix(-0.7071 0.7071 -0.7071 -0.7071 345.5862 449.4144)" style="fill:#193441;" width="112.799" height="16"/>
</g>
<path style="fill:#CBDBD7;" d="M488,168v216h-32V168c0-13.6-10.4-24-24-24H64c-13.6,0-24,10.4-24,24v216H8V168c0-31.2,24.8-56,56-56
	h368C463.2,112,488,136.8,488,168z"/>
<path style="fill:#3E606F;" d="M488,392h-32c-4.8,0-8-3.2-8-8V168c0-8.8-7.2-16-16-16H64c-8.8,0-16,7.2-16,16v216c0,4.8-3.2,8-8,8H8
	c-4.8,0-8-3.2-8-8V168c0-35.2,28.8-64,64-64h368c35.2,0,64,28.8,64,64v216C496,388.8,492.8,392,488,392z M464,376h16V168
	c0-26.4-21.6-48-48-48H64c-26.4,0-48,21.6-48,48v208h16V168c0-17.6,14.4-32,32-32h368c17.6,0,32,14.4,32,32V376z"/>
<g>
</g>
<g>
</g>
<g>
</g>
<g>
</g>
<g>
</g>
<g>
</g>
<g>
</g>
<g>
</g>
<g>
</g>
<g>
</g>
<g>
</g>
<g>
</g>
<g>
</g>
<g>
</g>
<g>
</g>
</svg>
